<svg width="399" height="125" viewBox="0 0 399 125" fill="none" xmlns="http://www.w3.org/2000/svg">
<path d="M25.9766 9.86719V45.2617H42.3789C46.1419 45.2617 48.8867 44.4427 50.6133 42.8047C52.3841 41.1224 53.5573 37.8242 54.1328 32.9102H56.5898V63.3906H54.1328C54.0885 59.8932 53.6237 57.3255 52.7383 55.6875C51.8971 54.0495 50.7018 52.832 49.1523 52.0352C47.6471 51.194 45.3893 50.7734 42.3789 50.7734H25.9766V79.0625C25.9766 83.6224 26.2643 86.6328 26.8398 88.0938C27.2826 89.2005 28.2122 90.1523 29.6289 90.9492C31.5768 92.0117 33.6133 92.543 35.7383 92.543H38.9922V95H0.34375V92.543H3.53125C7.25 92.543 9.95052 91.4583 11.6328 89.2891C12.6953 87.8724 13.2266 84.4635 13.2266 79.0625V20.8906C13.2266 16.3307 12.9388 13.3203 12.3633 11.8594C11.9206 10.7526 11.013 9.80078 9.64062 9.00391C7.73698 7.94141 5.70052 7.41016 3.53125 7.41016H0.34375V4.95312H67.3477L68.2109 24.7422H65.8867C64.7357 20.5365 63.3854 17.4596 61.8359 15.5117C60.3307 13.5195 58.4492 12.0807 56.1914 11.1953C53.9779 10.3099 50.5247 9.86719 45.832 9.86719H25.9766ZM107.855 32.3789C117.064 32.3789 124.457 35.8763 130.035 42.8711C134.772 48.8477 137.141 55.7096 137.141 63.457C137.141 68.9023 135.835 74.4141 133.223 79.9922C130.611 85.5703 127.003 89.776 122.398 92.6094C117.839 95.4427 112.747 96.8594 107.125 96.8594C97.9609 96.8594 90.6784 93.207 85.2773 85.9023C80.7174 79.7487 78.4375 72.8424 78.4375 65.1836C78.4375 59.6055 79.8099 54.0716 82.5547 48.582C85.3438 43.0482 88.9961 38.9753 93.5117 36.3633C98.0273 33.707 102.809 32.3789 107.855 32.3789ZM105.797 36.6953C103.451 36.6953 101.082 37.4036 98.6914 38.8203C96.3451 40.1927 94.4414 42.6276 92.9805 46.125C91.5195 49.6224 90.7891 54.1159 90.7891 59.6055C90.7891 68.4596 92.5378 76.0964 96.0352 82.5156C99.5768 88.9349 104.225 92.1445 109.98 92.1445C114.275 92.1445 117.816 90.3737 120.605 86.832C123.395 83.2904 124.789 77.2031 124.789 68.5703C124.789 57.7682 122.465 49.2682 117.816 43.0703C114.673 38.8203 110.667 36.6953 105.797 36.6953ZM175.855 32.3789C185.064 32.3789 192.457 35.8763 198.035 42.8711C202.772 48.8477 205.141 55.7096 205.141 63.457C205.141 68.9023 203.835 74.4141 201.223 79.9922C198.611 85.5703 195.003 89.776 190.398 92.6094C185.839 95.4427 180.747 96.8594 175.125 96.8594C165.961 96.8594 158.678 93.207 153.277 85.9023C148.717 79.7487 146.438 72.8424 146.438 65.1836C146.438 59.6055 147.81 54.0716 150.555 48.582C153.344 43.0482 156.996 38.9753 161.512 36.3633C166.027 33.707 170.809 32.3789 175.855 32.3789ZM173.797 36.6953C171.451 36.6953 169.082 37.4036 166.691 38.8203C164.345 40.1927 162.441 42.6276 160.98 46.125C159.52 49.6224 158.789 54.1159 158.789 59.6055C158.789 68.4596 160.538 76.0964 164.035 82.5156C167.577 88.9349 172.225 92.1445 177.98 92.1445C182.275 92.1445 185.816 90.3737 188.605 86.832C191.395 83.2904 192.789 77.2031 192.789 68.5703C192.789 57.7682 190.465 49.2682 185.816 43.0703C182.673 38.8203 178.667 36.6953 173.797 36.6953ZM257.07 88.1602C254.104 91.2591 251.204 93.4948 248.371 94.8672C245.538 96.1953 242.483 96.8594 239.207 96.8594C232.566 96.8594 226.767 94.0924 221.809 88.5586C216.85 82.9805 214.371 75.8307 214.371 67.1094C214.371 58.388 217.116 50.4193 222.605 43.2031C228.095 35.9427 235.156 32.3125 243.789 32.3125C249.146 32.3125 253.573 34.0169 257.07 37.4258V26.2031C257.07 19.2526 256.893 14.9805 256.539 13.3867C256.229 11.793 255.72 10.7083 255.012 10.1328C254.303 9.55729 253.418 9.26953 252.355 9.26953C251.204 9.26953 249.677 9.6237 247.773 10.332L246.91 8.00781L265.039 0.570312H268.027V70.8945C268.027 78.0221 268.182 82.3828 268.492 83.9766C268.846 85.526 269.378 86.6107 270.086 87.2305C270.839 87.8503 271.702 88.1602 272.676 88.1602C273.871 88.1602 275.465 87.7839 277.457 87.0312L278.188 89.3555L260.125 96.8594H257.07V88.1602ZM257.07 83.5117V52.168C256.805 49.1576 256.008 46.4128 254.68 43.9336C253.352 41.4544 251.581 39.5951 249.367 38.3555C247.198 37.0716 245.073 36.4297 242.992 36.4297C239.096 36.4297 235.621 38.1784 232.566 41.6758C228.538 46.2799 226.523 53.0091 226.523 61.8633C226.523 70.806 228.471 77.668 232.367 82.4492C236.263 87.1862 240.602 89.5547 245.383 89.5547C249.411 89.5547 253.307 87.5404 257.07 83.5117ZM321.418 32.3789V53.0977H319.227C317.544 46.5898 315.375 42.1628 312.719 39.8164C310.107 37.4701 306.764 36.2969 302.691 36.2969C299.592 36.2969 297.091 37.1159 295.188 38.7539C293.284 40.3919 292.332 42.207 292.332 44.1992C292.332 46.6784 293.04 48.8034 294.457 50.5742C295.829 52.3893 298.618 54.3151 302.824 56.3516L312.52 61.0664C321.507 65.4492 326 71.2266 326 78.3984C326 83.9323 323.897 88.4036 319.691 91.8125C315.53 95.1771 310.859 96.8594 305.68 96.8594C301.961 96.8594 297.711 96.1953 292.93 94.8672C291.469 94.4245 290.273 94.2031 289.344 94.2031C288.326 94.2031 287.529 94.7786 286.953 95.9297H284.762V74.2148H286.953C288.193 80.4128 290.561 85.0833 294.059 88.2266C297.556 91.3698 301.474 92.9414 305.812 92.9414C308.867 92.9414 311.346 92.056 313.25 90.2852C315.198 88.4701 316.172 86.3008 316.172 83.7773C316.172 80.7227 315.087 78.1549 312.918 76.0742C310.793 73.9935 306.521 71.3594 300.102 68.1719C293.682 64.9844 289.477 62.1068 287.484 59.5391C285.492 57.0156 284.496 53.8281 284.496 49.9766C284.496 44.974 286.201 40.7904 289.609 37.4258C293.062 34.0612 297.512 32.3789 302.957 32.3789C305.348 32.3789 308.247 32.888 311.656 33.9062C313.914 34.5703 315.419 34.9023 316.172 34.9023C316.88 34.9023 317.434 34.7474 317.832 34.4375C318.23 34.1276 318.695 33.4414 319.227 32.3789H321.418ZM331.645 34.1719H360V36.6289H358.605C356.613 36.6289 355.108 37.0716 354.09 37.957C353.116 38.7982 352.629 39.8607 352.629 41.1445C352.629 42.8711 353.359 45.2617 354.82 48.3164L369.629 78.9961L383.242 45.3945C383.995 43.5794 384.371 41.7865 384.371 40.0156C384.371 39.2188 384.216 38.6211 383.906 38.2227C383.552 37.7357 382.999 37.3594 382.246 37.0938C381.493 36.7839 380.165 36.6289 378.262 36.6289V34.1719H398.051V36.6289C396.413 36.806 395.151 37.1602 394.266 37.6914C393.38 38.2227 392.406 39.2188 391.344 40.6797C390.945 41.2995 390.193 43.0039 389.086 45.793L364.316 106.488C361.926 112.376 358.783 116.826 354.887 119.836C351.035 122.846 347.316 124.352 343.73 124.352C341.118 124.352 338.971 123.599 337.289 122.094C335.607 120.589 334.766 118.862 334.766 116.914C334.766 115.055 335.363 113.549 336.559 112.398C337.798 111.292 339.48 110.738 341.605 110.738C343.066 110.738 345.059 111.225 347.582 112.199C349.353 112.863 350.46 113.195 350.902 113.195C352.23 113.195 353.669 112.509 355.219 111.137C356.812 109.764 358.406 107.108 360 103.168L364.316 92.6094L342.469 46.7227C341.805 45.3503 340.742 43.6458 339.281 41.6094C338.174 40.0599 337.267 39.0195 336.559 38.4883C335.54 37.7799 333.902 37.1602 331.645 36.6289V34.1719Z" fill="#DC5537"/>
</svg>
