<svg width="158" height="220" viewBox="0 0 158 220" fill="none" xmlns="http://www.w3.org/2000/svg">
<path d="M83.74 69.734V80.636H140.146V69.734H83.74ZM99.066 76.528L89.428 78.74C98.908 117.924 117.236 149.366 145.834 165.166C147.572 162.164 151.206 157.74 153.892 155.686C126.084 142.098 107.914 112.078 99.066 76.528ZM38.236 47.14V65.942H48.506V47.14H38.236ZM17.064 61.992V151.104H27.808V61.992H17.064ZM23.384 83.164V91.696H61.778V83.164H23.384ZM6.162 148.734L10.27 159.794C24.964 155.054 43.608 148.892 61.462 142.888L60.04 133.25C40.29 139.096 19.75 145.1 6.162 148.734ZM45.82 122.19C51.824 132.302 58.302 145.732 60.83 154.106L70.942 149.524C68.414 141.308 61.62 128.352 55.458 118.556L45.82 122.19ZM23.384 61.992V70.84H56.88V104.652H23.384V113.5H67.466V61.992H23.384ZM85.794 28.18V39.24H148.836V28.18H85.794ZM79.79 28.18V83.638C79.79 107.18 78.21 137.674 61.146 159.004C63.674 160.268 68.572 163.586 70.468 165.798C88.48 143.362 91.008 108.76 91.008 83.638V28.18H79.79ZM137.618 69.734V72.104C130.508 114.606 109.968 142.098 82.95 156.002C85.478 157.898 89.112 162.48 90.85 165.166C118.658 149.682 140.62 119.662 148.994 71.946L142.042 69.26L139.83 69.734H137.618ZM35.392 20.438C29.388 32.92 18.328 48.562 2.37 60.254C4.898 61.834 8.374 65.152 10.112 67.522C27.176 54.408 38.552 38.134 45.346 26.126V22.966H41.712V20.438H35.392ZM38.552 20.438V28.338H40.764C50.086 36.08 61.146 48.72 66.518 56.462L74.26 48.088C68.572 40.188 56.722 28.496 46.926 20.438H38.552Z" fill="#DC5537"/>
<path d="M13.3153 172.364H18.4659L30.5767 201.945H30.9943L43.1051 172.364H48.2557V208H44.2188V180.925H43.8707L32.7344 208H28.8366L17.7003 180.925H17.3523V208H13.3153V172.364ZM67.5573 208.557C64.982 208.557 62.7605 207.988 60.8928 206.852C59.0368 205.703 57.6041 204.102 56.5949 202.049C55.5973 199.984 55.0985 197.583 55.0985 194.845C55.0985 192.107 55.5973 189.695 56.5949 187.607C57.6041 185.507 59.0078 183.871 60.8058 182.7C62.6155 181.516 64.7268 180.925 67.1396 180.925C68.5317 180.925 69.9063 181.157 71.2636 181.621C72.6208 182.085 73.8563 182.839 74.9699 183.883C76.0835 184.915 76.971 186.284 77.6322 187.989C78.2934 189.695 78.624 191.794 78.624 194.288V196.028H58.0218V192.479H74.4479C74.4479 190.971 74.1463 189.625 73.5431 188.442C72.9514 187.259 72.1046 186.325 71.0026 185.64C69.9121 184.956 68.6245 184.614 67.1396 184.614C65.504 184.614 64.0887 185.02 62.8939 185.832C61.7107 186.632 60.8 187.676 60.162 188.964C59.524 190.251 59.205 191.632 59.205 193.105V195.472C59.205 197.49 59.553 199.201 60.249 200.605C60.9566 201.997 61.9369 203.058 63.1897 203.789C64.4426 204.508 65.8984 204.868 67.5573 204.868C68.6361 204.868 69.6105 204.717 70.4806 204.415C71.3622 204.102 72.122 203.638 72.76 203.023C73.3981 202.397 73.8911 201.62 74.2391 200.692L78.2064 201.805C77.7888 203.151 77.087 204.334 76.1009 205.355C75.1149 206.364 73.8969 207.153 72.4468 207.722C70.9968 208.278 69.3669 208.557 67.5573 208.557ZM103.803 187.259L100.114 188.303C99.8817 187.688 99.5395 187.09 99.0871 186.51C98.6463 185.919 98.0431 185.431 97.2774 185.049C96.5118 184.666 95.5316 184.474 94.3367 184.474C92.7011 184.474 91.338 184.851 90.2476 185.605C89.1688 186.348 88.6294 187.293 88.6294 188.442C88.6294 189.463 89.0006 190.269 89.743 190.86C90.4854 191.452 91.6454 191.945 93.2231 192.339L97.1904 193.314C99.5801 193.894 101.361 194.781 102.532 195.976C103.704 197.159 104.29 198.685 104.29 200.553C104.29 202.084 103.849 203.453 102.967 204.659C102.097 205.866 100.879 206.817 99.3133 207.513C97.7472 208.209 95.926 208.557 93.8495 208.557C91.1234 208.557 88.8672 207.965 87.0807 206.782C85.2942 205.599 84.1632 203.87 83.6876 201.597L87.5853 200.622C87.9565 202.061 88.6584 203.139 89.6908 203.859C90.7348 204.578 92.0979 204.938 93.7799 204.938C95.694 204.938 97.2136 204.531 98.3389 203.719C99.4757 202.896 100.044 201.91 100.044 200.761C100.044 199.833 99.7193 199.056 99.0697 198.43C98.4201 197.792 97.4224 197.316 96.0768 197.003L91.6222 195.959C89.1746 195.379 87.3765 194.48 86.2281 193.262C85.0912 192.032 84.5228 190.495 84.5228 188.651C84.5228 187.143 84.9462 185.808 85.7931 184.648C86.6515 183.488 87.8173 182.578 89.2906 181.917C90.7754 181.255 92.4575 180.925 94.3367 180.925C96.9816 180.925 99.0581 181.505 100.566 182.665C102.086 183.825 103.165 185.356 103.803 187.259ZM114.578 191.922V208H110.471V172.364H114.578V185.449H114.926C115.552 184.068 116.492 182.972 117.745 182.16C119.009 181.337 120.691 180.925 122.791 180.925C124.612 180.925 126.207 181.29 127.576 182.021C128.945 182.74 130.006 183.848 130.76 185.344C131.526 186.829 131.909 188.72 131.909 191.017V208H127.802V191.295C127.802 189.173 127.251 187.531 126.149 186.371C125.059 185.199 123.545 184.614 121.608 184.614C120.262 184.614 119.056 184.898 117.988 185.466C116.933 186.035 116.098 186.864 115.483 187.955C114.88 189.045 114.578 190.367 114.578 191.922ZM139.422 208V181.273H143.528V208H139.422ZM141.51 176.818C140.709 176.818 140.019 176.546 139.439 176C138.871 175.455 138.586 174.8 138.586 174.034C138.586 173.268 138.871 172.613 139.439 172.068C140.019 171.523 140.709 171.25 141.51 171.25C142.31 171.25 142.995 171.523 143.563 172.068C144.143 172.613 144.433 173.268 144.433 174.034C144.433 174.8 144.143 175.455 143.563 176C142.995 176.546 142.31 176.818 141.51 176.818Z" fill="#DC5537"/>
</svg>
